<mxfile host="app.diagrams.net" modified="2023-07-20T08:15:24.184Z" agent="Mozilla/5.0 (Windows NT 10.0; Win64; x64) AppleWebKit/537.36 (KHTML, like Gecko) Chrome/114.0.0.0 Safari/537.36 Edg/114.0.1823.82" etag="W-81lSA674Qlb54FaBRb" version="21.6.2" type="github">
  <diagram name="第 1 页" id="wiU7CrUVXRSSs5T0buI0">
    <mxGraphModel dx="1124" dy="1023" grid="0" gridSize="10" guides="1" tooltips="1" connect="1" arrows="1" fold="1" page="0" pageScale="1" pageWidth="827" pageHeight="1169" math="0" shadow="0">
      <root>
        <mxCell id="0" />
        <mxCell id="1" parent="0" />
        <mxCell id="9ur6r3q9B1oXtnzbOLIL-1" value="制作自己的数据集" style="rounded=0;whiteSpace=wrap;html=1;fontSize=16;" vertex="1" parent="1">
          <mxGeometry x="65" y="-2" width="120" height="60" as="geometry" />
        </mxCell>
        <mxCell id="9ur6r3q9B1oXtnzbOLIL-2" value="" style="html=1;shadow=0;dashed=0;align=center;verticalAlign=middle;shape=mxgraph.arrows2.arrow;dy=0.6;dx=40;notch=0;fontSize=16;" vertex="1" parent="1">
          <mxGeometry x="209" y="-7" width="100" height="70" as="geometry" />
        </mxCell>
        <mxCell id="9ur6r3q9B1oXtnzbOLIL-3" value="bash train.sh" style="whiteSpace=wrap;html=1;fontSize=16;" vertex="1" parent="1">
          <mxGeometry x="336" y="-2" width="120" height="60" as="geometry" />
        </mxCell>
        <mxCell id="9ur6r3q9B1oXtnzbOLIL-6" value="" style="html=1;shadow=0;dashed=0;align=center;verticalAlign=middle;shape=mxgraph.arrows2.arrow;dy=0.6;dx=40;notch=0;fontSize=16;" vertex="1" parent="1">
          <mxGeometry x="481" y="-7" width="100" height="70" as="geometry" />
        </mxCell>
        <mxCell id="9ur6r3q9B1oXtnzbOLIL-7" value="bash evaluate.sh" style="whiteSpace=wrap;html=1;fontSize=16;" vertex="1" parent="1">
          <mxGeometry x="606" y="-7" width="120" height="60" as="geometry" />
        </mxCell>
      </root>
    </mxGraphModel>
  </diagram>
</mxfile>
